{
  "lengthBars": 8.0,
  "notes": [
    {
      "pitch": 33,
      "startBeat": 0.0,
      "lengthBeats": 4.0,
      "velocity": 0.8
    },
    {
      "pitch": 36,
      "startBeat": 0.0,
      "lengthBeats": 4.0,
      "velocity": 0.8
    },
    {
      "pitch": 40,
      "startBeat": 0.0,
      "lengthBeats": 4.0,
      "velocity": 0.8
    },
    {
      "pitch": 31,
      "startBeat": 6.0,
      "lengthBeats": 2.0,
      "velocity": 0.8
    },
    {
      "pitch": 35,
      "startBeat": 6.0,
      "lengthBeats": 2.0,
      "velocity": 0.8
    },
    {
      "pitch": 38,
      "startBeat": 6.0,
      "lengthBeats": 2.0,
      "velocity": 0.8
    },
    {
      "pitch": 33,
      "startBeat": 8.0,
      "lengthBeats": 4.0,
      "velocity": 0.8
    },
    {
      "pitch": 36,
      "startBeat": 8.0,
      "lengthBeats": 4.0,
      "velocity": 0.8
    },
    {
      "pitch": 40,
      "startBeat": 8.0,
      "lengthBeats": 4.0,
      "velocity": 0.8
    },
    {
      "pitch": 29,
      "startBeat": 14.0,
      "lengthBeats": 2.0,
      "velocity": 0.8
    },
    {
      "pitch": 33,
      "startBeat": 14.0,
      "lengthBeats": 2.0,
      "velocity": 0.8
    },
    {
      "pitch": 36,
      "startBeat": 14.0,
      "lengthBeats": 2.0,
      "velocity": 0.8
    },
    {
      "pitch": 33,
      "startBeat": 16.0,
      "lengthBeats": 4.0,
      "velocity": 0.8
    },
    {
      "pitch": 36,
      "startBeat": 16.0,
      "lengthBeats": 4.0,
      "velocity": 0.8
    },
    {
      "pitch": 40,
      "startBeat": 16.0,
      "lengthBeats": 4.0,
      "velocity": 0.8
    },
    {
      "pitch": 31,
      "startBeat": 22.0,
      "lengthBeats": 2.0,
      "velocity": 0.8
    },
    {
      "pitch": 35,
      "startBeat": 22.0,
      "lengthBeats": 2.0,
      "velocity": 0.8
    },
    {
      "pitch": 38,
      "startBeat": 22.0,
      "lengthBeats": 2.0,
      "velocity": 0.8
    },
    {
      "pitch": 33,
      "startBeat": 24.0,
      "lengthBeats": 2.0,
      "velocity": 0.8
    },
    {
      "pitch": 36,
      "startBeat": 24.0,
      "lengthBeats": 2.0,
      "velocity": 0.8
    },
    {
      "pitch": 40,
      "startBeat": 24.0,
      "lengthBeats": 2.0,
      "velocity": 0.8
    },
    {
      "pitch": 31,
      "startBeat": 26.0,
      "lengthBeats": 2.0,
      "velocity": 0.8
    },
    {
      "pitch": 35,
      "startBeat": 26.0,
      "lengthBeats": 2.0,
      "velocity": 0.8
    },
    {
      "pitch": 38,
      "startBeat": 26.0,
      "lengthBeats": 2.0,
      "velocity": 0.8
    },
    {
      "pitch": 29,
      "startBeat": 28.0,
      "lengthBeats": 4.0,
      "velocity": 0.8
    },
    {
      "pitch": 33,
      "startBeat": 28.0,
      "lengthBeats": 4.0,
      "velocity": 0.8
    },
    {
      "pitch": 36,
      "startBeat": 28.0,
      "lengthBeats": 4.0,
      "velocity": 0.8
    }
  ],
  "name": "90s Boom Bap - Chords & Riffs",
  "version": 2
}