{
  "lengthBars": 16.0,
  "notes": [
    {
      "pitch": 36,
      "startBeat": 1.0,
      "lengthBeats": 2.0,
      "velocity": 0.8
    },
    {
      "pitch": 40,
      "startBeat": 1.0,
      "lengthBeats": 2.0,
      "velocity": 0.8
    },
    {
      "pitch": 43,
      "startBeat": 1.0,
      "lengthBeats": 2.0,
      "velocity": 0.8
    },
    {
      "pitch": 36,
      "startBeat": 4.0,
      "lengthBeats": 2.0,
      "velocity": 0.8
    },
    {
      "pitch": 40,
      "startBeat": 4.0,
      "lengthBeats": 2.0,
      "velocity": 0.8
    },
    {
      "pitch": 43,
      "startBeat": 4.0,
      "lengthBeats": 2.0,
      "velocity": 0.8
    },
    {
      "pitch": 36,
      "startBeat": 7.0,
      "lengthBeats": 2.0,
      "velocity": 0.8
    },
    {
      "pitch": 40,
      "startBeat": 7.0,
      "lengthBeats": 2.0,
      "velocity": 0.8
    },
    {
      "pitch": 43,
      "startBeat": 7.0,
      "lengthBeats": 2.0,
      "velocity": 0.8
    },
    {
      "pitch": 29,
      "startBeat": 10.0,
      "lengthBeats": 2.0,
      "velocity": 0.8
    },
    {
      "pitch": 33,
      "startBeat": 10.0,
      "lengthBeats": 2.0,
      "velocity": 0.8
    },
    {
      "pitch": 36,
      "startBeat": 10.0,
      "lengthBeats": 2.0,
      "velocity": 0.8
    },
    {
      "pitch": 29,
      "startBeat": 13.0,
      "lengthBeats": 2.0,
      "velocity": 0.8
    },
    {
      "pitch": 33,
      "startBeat": 13.0,
      "lengthBeats": 2.0,
      "velocity": 0.8
    },
    {
      "pitch": 36,
      "startBeat": 13.0,
      "lengthBeats": 2.0,
      "velocity": 0.8
    },
    {
      "pitch": 29,
      "startBeat": 16.0,
      "lengthBeats": 2.0,
      "velocity": 0.8
    },
    {
      "pitch": 33,
      "startBeat": 16.0,
      "lengthBeats": 2.0,
      "velocity": 0.8
    },
    {
      "pitch": 36,
      "startBeat": 16.0,
      "lengthBeats": 2.0,
      "velocity": 0.8
    },
    {
      "pitch": 31,
      "startBeat": 19.0,
      "lengthBeats": 2.0,
      "velocity": 0.8
    },
    {
      "pitch": 35,
      "startBeat": 19.0,
      "lengthBeats": 2.0,
      "velocity": 0.8
    },
    {
      "pitch": 38,
      "startBeat": 19.0,
      "lengthBeats": 2.0,
      "velocity": 0.8
    },
    {
      "pitch": 31,
      "startBeat": 22.0,
      "lengthBeats": 2.0,
      "velocity": 0.8
    },
    {
      "pitch": 35,
      "startBeat": 22.0,
      "lengthBeats": 2.0,
      "velocity": 0.8
    },
    {
      "pitch": 38,
      "startBeat": 22.0,
      "lengthBeats": 2.0,
      "velocity": 0.8
    },
    {
      "pitch": 31,
      "startBeat": 25.0,
      "lengthBeats": 2.0,
      "velocity": 0.8
    },
    {
      "pitch": 35,
      "startBeat": 25.0,
      "lengthBeats": 2.0,
      "velocity": 0.8
    },
    {
      "pitch": 38,
      "startBeat": 25.0,
      "lengthBeats": 2.0,
      "velocity": 0.8
    },
    {
      "pitch": 36,
      "startBeat": 28.0,
      "lengthBeats": 2.0,
      "velocity": 0.8
    },
    {
      "pitch": 40,
      "startBeat": 28.0,
      "lengthBeats": 2.0,
      "velocity": 0.8
    },
    {
      "pitch": 43,
      "startBeat": 28.0,
      "lengthBeats": 2.0,
      "velocity": 0.8
    },
    {
      "pitch": 36,
      "startBeat": 31.0,
      "lengthBeats": 4.0,
      "velocity": 0.8
    },
    {
      "pitch": 40,
      "startBeat": 31.0,
      "lengthBeats": 4.0,
      "velocity": 0.8
    },
    {
      "pitch": 43,
      "startBeat": 31.0,
      "lengthBeats": 4.0,
      "velocity": 0.8
    }
  ],
  "name": "Roots Reggae - Chords & Riffs",
  "version": 2
}