{
  "lengthBars": 8.0,
  "notes": [
    {
      "pitch": 45,
      "startBeat": 0.0,
      "lengthBeats": 1.0,
      "velocity": 0.8
    },
    {
      "pitch": 48,
      "startBeat": 0.0,
      "lengthBeats": 1.0,
      "velocity": 0.8
    },
    {
      "pitch": 52,
      "startBeat": 0.0,
      "lengthBeats": 1.0,
      "velocity": 0.8
    },
    {
      "pitch": 45,
      "startBeat": 2.0,
      "lengthBeats": 0.5,
      "velocity": 0.8
    },
    {
      "pitch": 48,
      "startBeat": 2.0,
      "lengthBeats": 0.5,
      "velocity": 0.8
    },
    {
      "pitch": 52,
      "startBeat": 2.0,
      "lengthBeats": 0.5,
      "velocity": 0.8
    },
    {
      "pitch": 45,
      "startBeat": 3.0,
      "lengthBeats": 1.0,
      "velocity": 0.8
    },
    {
      "pitch": 48,
      "startBeat": 3.0,
      "lengthBeats": 1.0,
      "velocity": 0.8
    },
    {
      "pitch": 52,
      "startBeat": 3.0,
      "lengthBeats": 1.0,
      "velocity": 0.8
    },
    {
      "pitch": 50,
      "startBeat": 5.0,
      "lengthBeats": 0.5,
      "velocity": 0.8
    },
    {
      "pitch": 53,
      "startBeat": 5.0,
      "lengthBeats": 0.5,
      "velocity": 0.8
    },
    {
      "pitch": 57,
      "startBeat": 5.0,
      "lengthBeats": 0.5,
      "velocity": 0.8
    },
    {
      "pitch": 50,
      "startBeat": 6.0,
      "lengthBeats": 1.0,
      "velocity": 0.8
    },
    {
      "pitch": 53,
      "startBeat": 6.0,
      "lengthBeats": 1.0,
      "velocity": 0.8
    },
    {
      "pitch": 57,
      "startBeat": 6.0,
      "lengthBeats": 1.0,
      "velocity": 0.8
    },
    {
      "pitch": 43,
      "startBeat": 8.0,
      "lengthBeats": 1.0,
      "velocity": 0.8
    },
    {
      "pitch": 59,
      "startBeat": 8.0,
      "lengthBeats": 1.0,
      "velocity": 0.8
    },
    {
      "pitch": 50,
      "startBeat": 8.0,
      "lengthBeats": 1.0,
      "velocity": 0.8
    },
    {
      "pitch": 43,
      "startBeat": 10.0,
      "lengthBeats": 0.5,
      "velocity": 0.8
    },
    {
      "pitch": 59,
      "startBeat": 10.0,
      "lengthBeats": 0.5,
      "velocity": 0.8
    },
    {
      "pitch": 50,
      "startBeat": 10.0,
      "lengthBeats": 0.5,
      "velocity": 0.8
    },
    {
      "pitch": 43,
      "startBeat": 11.0,
      "lengthBeats": 1.0,
      "velocity": 0.8
    },
    {
      "pitch": 59,
      "startBeat": 11.0,
      "lengthBeats": 1.0,
      "velocity": 0.8
    },
    {
      "pitch": 50,
      "startBeat": 11.0,
      "lengthBeats": 1.0,
      "velocity": 0.8
    },
    {
      "pitch": 48,
      "startBeat": 13.0,
      "lengthBeats": 0.5,
      "velocity": 0.8
    },
    {
      "pitch": 52,
      "startBeat": 13.0,
      "lengthBeats": 0.5,
      "velocity": 0.8
    },
    {
      "pitch": 55,
      "startBeat": 13.0,
      "lengthBeats": 0.5,
      "velocity": 0.8
    },
    {
      "pitch": 48,
      "startBeat": 14.0,
      "lengthBeats": 1.0,
      "velocity": 0.8
    },
    {
      "pitch": 52,
      "startBeat": 14.0,
      "lengthBeats": 1.0,
      "velocity": 0.8
    },
    {
      "pitch": 55,
      "startBeat": 14.0,
      "lengthBeats": 1.0,
      "velocity": 0.8
    },
    {
      "pitch": 41,
      "startBeat": 16.0,
      "lengthBeats": 1.0,
      "velocity": 0.8
    },
    {
      "pitch": 57,
      "startBeat": 16.0,
      "lengthBeats": 1.0,
      "velocity": 0.8
    },
    {
      "pitch": 48,
      "startBeat": 16.0,
      "lengthBeats": 1.0,
      "velocity": 0.8
    },
    {
      "pitch": 41,
      "startBeat": 18.0,
      "lengthBeats": 0.5,
      "velocity": 0.8
    },
    {
      "pitch": 57,
      "startBeat": 18.0,
      "lengthBeats": 0.5,
      "velocity": 0.8
    },
    {
      "pitch": 48,
      "startBeat": 18.0,
      "lengthBeats": 0.5,
      "velocity": 0.8
    },
    {
      "pitch": 41,
      "startBeat": 19.0,
      "lengthBeats": 1.0,
      "velocity": 0.8
    },
    {
      "pitch": 57,
      "startBeat": 19.0,
      "lengthBeats": 1.0,
      "velocity": 0.8
    },
    {
      "pitch": 48,
      "startBeat": 19.0,
      "lengthBeats": 1.0,
      "velocity": 0.8
    },
    {
      "pitch": 58,
      "startBeat": 21.0,
      "lengthBeats": 0.5,
      "velocity": 0.8
    },
    {
      "pitch": 50,
      "startBeat": 21.0,
      "lengthBeats": 0.5,
      "velocity": 0.8
    },
    {
      "pitch": 53,
      "startBeat": 21.0,
      "lengthBeats": 0.5,
      "velocity": 0.8
    },
    {
      "pitch": 58,
      "startBeat": 22.0,
      "lengthBeats": 1.0,
      "velocity": 0.8
    },
    {
      "pitch": 50,
      "startBeat": 22.0,
      "lengthBeats": 1.0,
      "velocity": 0.8
    },
    {
      "pitch": 53,
      "startBeat": 22.0,
      "lengthBeats": 1.0,
      "velocity": 0.8
    },
    {
      "pitch": 40,
      "startBeat": 24.0,
      "lengthBeats": 1.0,
      "velocity": 0.8
    },
    {
      "pitch": 55,
      "startBeat": 24.0,
      "lengthBeats": 1.0,
      "velocity": 0.8
    },
    {
      "pitch": 59,
      "startBeat": 24.0,
      "lengthBeats": 1.0,
      "velocity": 0.8
    },
    {
      "pitch": 45,
      "startBeat": 25.0,
      "lengthBeats": 1.0,
      "velocity": 0.8
    },
    {
      "pitch": 48,
      "startBeat": 25.0,
      "lengthBeats": 1.0,
      "velocity": 0.8
    },
    {
      "pitch": 52,
      "startBeat": 25.0,
      "lengthBeats": 1.0,
      "velocity": 0.8
    },
    {
      "pitch": 45,
      "startBeat": 26.0,
      "lengthBeats": 1.0,
      "velocity": 0.8
    },
    {
      "pitch": 48,
      "startBeat": 26.0,
      "lengthBeats": 1.0,
      "velocity": 0.8
    },
    {
      "pitch": 52,
      "startBeat": 26.0,
      "lengthBeats": 1.0,
      "velocity": 0.8
    },
    {
      "pitch": 45,
      "startBeat": 28.0,
      "lengthBeats": 4.0,
      "velocity": 0.8
    },
    {
      "pitch": 48,
      "startBeat": 28.0,
      "lengthBeats": 4.0,
      "velocity": 0.8
    },
    {
      "pitch": 52,
      "startBeat": 28.0,
      "lengthBeats": 4.0,
      "velocity": 0.8
    }
  ],
  "name": "Bossa Nova - Lead Lines",
  "version": 2
}