{
  "lengthBars": 8.0,
  "notes": [
    {
      "pitch": 52,
      "startBeat": 1.0,
      "lengthBeats": 0.5,
      "velocity": 0.8
    },
    {
      "pitch": 58,
      "startBeat": 1.0,
      "lengthBeats": 0.5,
      "velocity": 0.8
    },
    {
      "pitch": 55,
      "startBeat": 1.0,
      "lengthBeats": 0.5,
      "velocity": 0.8
    },
    {
      "pitch": 52,
      "startBeat": 3.0,
      "lengthBeats": 0.5,
      "velocity": 0.8
    },
    {
      "pitch": 58,
      "startBeat": 3.0,
      "lengthBeats": 0.5,
      "velocity": 0.8
    },
    {
      "pitch": 55,
      "startBeat": 3.0,
      "lengthBeats": 0.5,
      "velocity": 0.8
    },
    {
      "pitch": 52,
      "startBeat": 5.0,
      "lengthBeats": 0.5,
      "velocity": 0.8
    },
    {
      "pitch": 58,
      "startBeat": 5.0,
      "lengthBeats": 0.5,
      "velocity": 0.8
    },
    {
      "pitch": 55,
      "startBeat": 5.0,
      "lengthBeats": 0.5,
      "velocity": 0.8
    },
    {
      "pitch": 52,
      "startBeat": 7.0,
      "lengthBeats": 1.0,
      "velocity": 0.8
    },
    {
      "pitch": 58,
      "startBeat": 7.0,
      "lengthBeats": 1.0,
      "velocity": 0.8
    },
    {
      "pitch": 55,
      "startBeat": 7.0,
      "lengthBeats": 1.0,
      "velocity": 0.8
    },
    {
      "pitch": 57,
      "startBeat": 9.0,
      "lengthBeats": 0.5,
      "velocity": 0.8
    },
    {
      "pitch": 48,
      "startBeat": 9.0,
      "lengthBeats": 0.5,
      "velocity": 0.8
    },
    {
      "pitch": 52,
      "startBeat": 9.0,
      "lengthBeats": 0.5,
      "velocity": 0.8
    },
    {
      "pitch": 57,
      "startBeat": 11.0,
      "lengthBeats": 0.5,
      "velocity": 0.8
    },
    {
      "pitch": 48,
      "startBeat": 11.0,
      "lengthBeats": 0.5,
      "velocity": 0.8
    },
    {
      "pitch": 52,
      "startBeat": 11.0,
      "lengthBeats": 0.5,
      "velocity": 0.8
    },
    {
      "pitch": 57,
      "startBeat": 13.0,
      "lengthBeats": 0.5,
      "velocity": 0.8
    },
    {
      "pitch": 48,
      "startBeat": 13.0,
      "lengthBeats": 0.5,
      "velocity": 0.8
    },
    {
      "pitch": 52,
      "startBeat": 13.0,
      "lengthBeats": 0.5,
      "velocity": 0.8
    },
    {
      "pitch": 57,
      "startBeat": 15.0,
      "lengthBeats": 1.0,
      "velocity": 0.8
    },
    {
      "pitch": 48,
      "startBeat": 15.0,
      "lengthBeats": 1.0,
      "velocity": 0.8
    },
    {
      "pitch": 52,
      "startBeat": 15.0,
      "lengthBeats": 1.0,
      "velocity": 0.8
    },
    {
      "pitch": 52,
      "startBeat": 17.0,
      "lengthBeats": 0.5,
      "velocity": 0.8
    },
    {
      "pitch": 58,
      "startBeat": 17.0,
      "lengthBeats": 0.5,
      "velocity": 0.8
    },
    {
      "pitch": 55,
      "startBeat": 17.0,
      "lengthBeats": 0.5,
      "velocity": 0.8
    },
    {
      "pitch": 52,
      "startBeat": 19.0,
      "lengthBeats": 0.5,
      "velocity": 0.8
    },
    {
      "pitch": 58,
      "startBeat": 19.0,
      "lengthBeats": 0.5,
      "velocity": 0.8
    },
    {
      "pitch": 55,
      "startBeat": 19.0,
      "lengthBeats": 0.5,
      "velocity": 0.8
    },
    {
      "pitch": 52,
      "startBeat": 21.0,
      "lengthBeats": 0.5,
      "velocity": 0.8
    },
    {
      "pitch": 58,
      "startBeat": 21.0,
      "lengthBeats": 0.5,
      "velocity": 0.8
    },
    {
      "pitch": 55,
      "startBeat": 21.0,
      "lengthBeats": 0.5,
      "velocity": 0.8
    },
    {
      "pitch": 52,
      "startBeat": 23.0,
      "lengthBeats": 1.0,
      "velocity": 0.8
    },
    {
      "pitch": 58,
      "startBeat": 23.0,
      "lengthBeats": 1.0,
      "velocity": 0.8
    },
    {
      "pitch": 55,
      "startBeat": 23.0,
      "lengthBeats": 1.0,
      "velocity": 0.8
    },
    {
      "pitch": 57,
      "startBeat": 24.0,
      "lengthBeats": 0.5,
      "velocity": 0.8
    },
    {
      "pitch": 48,
      "startBeat": 24.0,
      "lengthBeats": 0.5,
      "velocity": 0.8
    },
    {
      "pitch": 52,
      "startBeat": 24.0,
      "lengthBeats": 0.5,
      "velocity": 0.8
    },
    {
      "pitch": 52,
      "startBeat": 25.0,
      "lengthBeats": 0.5,
      "velocity": 0.8
    },
    {
      "pitch": 58,
      "startBeat": 25.0,
      "lengthBeats": 0.5,
      "velocity": 0.8
    },
    {
      "pitch": 55,
      "startBeat": 25.0,
      "lengthBeats": 0.5,
      "velocity": 0.8
    },
    {
      "pitch": 52,
      "startBeat": 28.0,
      "lengthBeats": 4.0,
      "velocity": 0.8
    },
    {
      "pitch": 58,
      "startBeat": 28.0,
      "lengthBeats": 4.0,
      "velocity": 0.8
    },
    {
      "pitch": 55,
      "startBeat": 28.0,
      "lengthBeats": 4.0,
      "velocity": 0.8
    }
  ],
  "name": "Tight Funk - Lead Lines",
  "version": 2
}