{
  "lengthBars": 8.0,
  "notes": [
    {
      "pitch": 40,
      "startBeat": 0.0,
      "lengthBeats": 2.0,
      "velocity": 0.8
    },
    {
      "pitch": 43,
      "startBeat": 0.0,
      "lengthBeats": 2.0,
      "velocity": 0.8
    },
    {
      "pitch": 46,
      "startBeat": 0.0,
      "lengthBeats": 2.0,
      "velocity": 0.8
    },
    {
      "pitch": 40,
      "startBeat": 3.0,
      "lengthBeats": 0.5,
      "velocity": 0.8
    },
    {
      "pitch": 43,
      "startBeat": 3.0,
      "lengthBeats": 0.5,
      "velocity": 0.8
    },
    {
      "pitch": 46,
      "startBeat": 3.0,
      "lengthBeats": 0.5,
      "velocity": 0.8
    },
    {
      "pitch": 40,
      "startBeat": 5.0,
      "lengthBeats": 0.5,
      "velocity": 0.8
    },
    {
      "pitch": 43,
      "startBeat": 5.0,
      "lengthBeats": 0.5,
      "velocity": 0.8
    },
    {
      "pitch": 46,
      "startBeat": 5.0,
      "lengthBeats": 0.5,
      "velocity": 0.8
    },
    {
      "pitch": 40,
      "startBeat": 7.0,
      "lengthBeats": 1.0,
      "velocity": 0.8
    },
    {
      "pitch": 43,
      "startBeat": 7.0,
      "lengthBeats": 1.0,
      "velocity": 0.8
    },
    {
      "pitch": 46,
      "startBeat": 7.0,
      "lengthBeats": 1.0,
      "velocity": 0.8
    },
    {
      "pitch": 33,
      "startBeat": 8.0,
      "lengthBeats": 2.0,
      "velocity": 0.8
    },
    {
      "pitch": 36,
      "startBeat": 8.0,
      "lengthBeats": 2.0,
      "velocity": 0.8
    },
    {
      "pitch": 40,
      "startBeat": 8.0,
      "lengthBeats": 2.0,
      "velocity": 0.8
    },
    {
      "pitch": 33,
      "startBeat": 11.0,
      "lengthBeats": 0.5,
      "velocity": 0.8
    },
    {
      "pitch": 36,
      "startBeat": 11.0,
      "lengthBeats": 0.5,
      "velocity": 0.8
    },
    {
      "pitch": 40,
      "startBeat": 11.0,
      "lengthBeats": 0.5,
      "velocity": 0.8
    },
    {
      "pitch": 33,
      "startBeat": 13.0,
      "lengthBeats": 0.5,
      "velocity": 0.8
    },
    {
      "pitch": 36,
      "startBeat": 13.0,
      "lengthBeats": 0.5,
      "velocity": 0.8
    },
    {
      "pitch": 40,
      "startBeat": 13.0,
      "lengthBeats": 0.5,
      "velocity": 0.8
    },
    {
      "pitch": 33,
      "startBeat": 15.0,
      "lengthBeats": 1.0,
      "velocity": 0.8
    },
    {
      "pitch": 36,
      "startBeat": 15.0,
      "lengthBeats": 1.0,
      "velocity": 0.8
    },
    {
      "pitch": 40,
      "startBeat": 15.0,
      "lengthBeats": 1.0,
      "velocity": 0.8
    },
    {
      "pitch": 40,
      "startBeat": 16.0,
      "lengthBeats": 2.0,
      "velocity": 0.8
    },
    {
      "pitch": 43,
      "startBeat": 16.0,
      "lengthBeats": 2.0,
      "velocity": 0.8
    },
    {
      "pitch": 46,
      "startBeat": 16.0,
      "lengthBeats": 2.0,
      "velocity": 0.8
    },
    {
      "pitch": 40,
      "startBeat": 19.0,
      "lengthBeats": 0.5,
      "velocity": 0.8
    },
    {
      "pitch": 43,
      "startBeat": 19.0,
      "lengthBeats": 0.5,
      "velocity": 0.8
    },
    {
      "pitch": 46,
      "startBeat": 19.0,
      "lengthBeats": 0.5,
      "velocity": 0.8
    },
    {
      "pitch": 40,
      "startBeat": 21.0,
      "lengthBeats": 0.5,
      "velocity": 0.8
    },
    {
      "pitch": 43,
      "startBeat": 21.0,
      "lengthBeats": 0.5,
      "velocity": 0.8
    },
    {
      "pitch": 46,
      "startBeat": 21.0,
      "lengthBeats": 0.5,
      "velocity": 0.8
    },
    {
      "pitch": 40,
      "startBeat": 23.0,
      "lengthBeats": 1.0,
      "velocity": 0.8
    },
    {
      "pitch": 43,
      "startBeat": 23.0,
      "lengthBeats": 1.0,
      "velocity": 0.8
    },
    {
      "pitch": 46,
      "startBeat": 23.0,
      "lengthBeats": 1.0,
      "velocity": 0.8
    },
    {
      "pitch": 33,
      "startBeat": 24.0,
      "lengthBeats": 0.5,
      "velocity": 0.8
    },
    {
      "pitch": 36,
      "startBeat": 24.0,
      "lengthBeats": 0.5,
      "velocity": 0.8
    },
    {
      "pitch": 40,
      "startBeat": 24.0,
      "lengthBeats": 0.5,
      "velocity": 0.8
    },
    {
      "pitch": 40,
      "startBeat": 25.0,
      "lengthBeats": 0.5,
      "velocity": 0.8
    },
    {
      "pitch": 43,
      "startBeat": 25.0,
      "lengthBeats": 0.5,
      "velocity": 0.8
    },
    {
      "pitch": 46,
      "startBeat": 25.0,
      "lengthBeats": 0.5,
      "velocity": 0.8
    },
    {
      "pitch": 40,
      "startBeat": 28.0,
      "lengthBeats": 4.0,
      "velocity": 0.8
    },
    {
      "pitch": 43,
      "startBeat": 28.0,
      "lengthBeats": 4.0,
      "velocity": 0.8
    },
    {
      "pitch": 46,
      "startBeat": 28.0,
      "lengthBeats": 4.0,
      "velocity": 0.8
    }
  ],
  "name": "Tight Funk - Chords & Riffs",
  "version": 2
}