{
  "lengthBars": 8.0,
  "notes": [
    {
      "pitch": 34,
      "startBeat": 0.0,
      "lengthBeats": 2.0,
      "velocity": 0.8
    },
    {
      "pitch": 38,
      "startBeat": 0.0,
      "lengthBeats": 2.0,
      "velocity": 0.8
    },
    {
      "pitch": 41,
      "startBeat": 0.0,
      "lengthBeats": 2.0,
      "velocity": 0.8
    },
    {
      "pitch": 34,
      "startBeat": 2.0,
      "lengthBeats": 1.0,
      "velocity": 0.8
    },
    {
      "pitch": 38,
      "startBeat": 2.0,
      "lengthBeats": 1.0,
      "velocity": 0.8
    },
    {
      "pitch": 41,
      "startBeat": 2.0,
      "lengthBeats": 1.0,
      "velocity": 0.8
    },
    {
      "pitch": 34,
      "startBeat": 3.0,
      "lengthBeats": 1.0,
      "velocity": 0.8
    },
    {
      "pitch": 38,
      "startBeat": 3.0,
      "lengthBeats": 1.0,
      "velocity": 0.8
    },
    {
      "pitch": 41,
      "startBeat": 3.0,
      "lengthBeats": 1.0,
      "velocity": 0.8
    },
    {
      "pitch": 27,
      "startBeat": 4.0,
      "lengthBeats": 2.0,
      "velocity": 0.8
    },
    {
      "pitch": 31,
      "startBeat": 4.0,
      "lengthBeats": 2.0,
      "velocity": 0.8
    },
    {
      "pitch": 34,
      "startBeat": 4.0,
      "lengthBeats": 2.0,
      "velocity": 0.8
    },
    {
      "pitch": 27,
      "startBeat": 6.0,
      "lengthBeats": 2.0,
      "velocity": 0.8
    },
    {
      "pitch": 31,
      "startBeat": 6.0,
      "lengthBeats": 2.0,
      "velocity": 0.8
    },
    {
      "pitch": 34,
      "startBeat": 6.0,
      "lengthBeats": 2.0,
      "velocity": 0.8
    },
    {
      "pitch": 29,
      "startBeat": 8.0,
      "lengthBeats": 2.0,
      "velocity": 0.8
    },
    {
      "pitch": 33,
      "startBeat": 8.0,
      "lengthBeats": 2.0,
      "velocity": 0.8
    },
    {
      "pitch": 36,
      "startBeat": 8.0,
      "lengthBeats": 2.0,
      "velocity": 0.8
    },
    {
      "pitch": 29,
      "startBeat": 10.0,
      "lengthBeats": 2.0,
      "velocity": 0.8
    },
    {
      "pitch": 33,
      "startBeat": 10.0,
      "lengthBeats": 2.0,
      "velocity": 0.8
    },
    {
      "pitch": 36,
      "startBeat": 10.0,
      "lengthBeats": 2.0,
      "velocity": 0.8
    },
    {
      "pitch": 34,
      "startBeat": 12.0,
      "lengthBeats": 2.0,
      "velocity": 0.8
    },
    {
      "pitch": 38,
      "startBeat": 12.0,
      "lengthBeats": 2.0,
      "velocity": 0.8
    },
    {
      "pitch": 41,
      "startBeat": 12.0,
      "lengthBeats": 2.0,
      "velocity": 0.8
    },
    {
      "pitch": 29,
      "startBeat": 14.0,
      "lengthBeats": 2.0,
      "velocity": 0.8
    },
    {
      "pitch": 33,
      "startBeat": 14.0,
      "lengthBeats": 2.0,
      "velocity": 0.8
    },
    {
      "pitch": 36,
      "startBeat": 14.0,
      "lengthBeats": 2.0,
      "velocity": 0.8
    },
    {
      "pitch": 34,
      "startBeat": 16.0,
      "lengthBeats": 2.0,
      "velocity": 0.8
    },
    {
      "pitch": 38,
      "startBeat": 16.0,
      "lengthBeats": 2.0,
      "velocity": 0.8
    },
    {
      "pitch": 41,
      "startBeat": 16.0,
      "lengthBeats": 2.0,
      "velocity": 0.8
    },
    {
      "pitch": 34,
      "startBeat": 18.0,
      "lengthBeats": 1.0,
      "velocity": 0.8
    },
    {
      "pitch": 38,
      "startBeat": 18.0,
      "lengthBeats": 1.0,
      "velocity": 0.8
    },
    {
      "pitch": 41,
      "startBeat": 18.0,
      "lengthBeats": 1.0,
      "velocity": 0.8
    },
    {
      "pitch": 34,
      "startBeat": 19.0,
      "lengthBeats": 1.0,
      "velocity": 0.8
    },
    {
      "pitch": 38,
      "startBeat": 19.0,
      "lengthBeats": 1.0,
      "velocity": 0.8
    },
    {
      "pitch": 41,
      "startBeat": 19.0,
      "lengthBeats": 1.0,
      "velocity": 0.8
    },
    {
      "pitch": 27,
      "startBeat": 20.0,
      "lengthBeats": 2.0,
      "velocity": 0.8
    },
    {
      "pitch": 31,
      "startBeat": 20.0,
      "lengthBeats": 2.0,
      "velocity": 0.8
    },
    {
      "pitch": 34,
      "startBeat": 20.0,
      "lengthBeats": 2.0,
      "velocity": 0.8
    },
    {
      "pitch": 27,
      "startBeat": 22.0,
      "lengthBeats": 2.0,
      "velocity": 0.8
    },
    {
      "pitch": 31,
      "startBeat": 22.0,
      "lengthBeats": 2.0,
      "velocity": 0.8
    },
    {
      "pitch": 34,
      "startBeat": 22.0,
      "lengthBeats": 2.0,
      "velocity": 0.8
    },
    {
      "pitch": 29,
      "startBeat": 24.0,
      "lengthBeats": 2.0,
      "velocity": 0.8
    },
    {
      "pitch": 33,
      "startBeat": 24.0,
      "lengthBeats": 2.0,
      "velocity": 0.8
    },
    {
      "pitch": 36,
      "startBeat": 24.0,
      "lengthBeats": 2.0,
      "velocity": 0.8
    },
    {
      "pitch": 29,
      "startBeat": 26.0,
      "lengthBeats": 2.0,
      "velocity": 0.8
    },
    {
      "pitch": 33,
      "startBeat": 26.0,
      "lengthBeats": 2.0,
      "velocity": 0.8
    },
    {
      "pitch": 36,
      "startBeat": 26.0,
      "lengthBeats": 2.0,
      "velocity": 0.8
    },
    {
      "pitch": 34,
      "startBeat": 28.0,
      "lengthBeats": 4.0,
      "velocity": 0.8
    },
    {
      "pitch": 38,
      "startBeat": 28.0,
      "lengthBeats": 4.0,
      "velocity": 0.8
    },
    {
      "pitch": 41,
      "startBeat": 28.0,
      "lengthBeats": 4.0,
      "velocity": 0.8
    }
  ],
  "name": "Big Band Brass Stabs",
  "version": 1
}