{
  "lengthBars": 16.0,
  "notes": [
    {
      "pitch": 57,
      "startBeat": 0.0,
      "lengthBeats": 2.0,
      "velocity": 0.8
    },
    {
      "pitch": 64,
      "startBeat": 2.0,
      "lengthBeats": 4.0,
      "velocity": 0.8
    },
    {
      "pitch": 62,
      "startBeat": 6.0,
      "lengthBeats": 2.0,
      "velocity": 0.8
    },
    {
      "pitch": 60,
      "startBeat": 8.0,
      "lengthBeats": 4.0,
      "velocity": 0.8
    },
    {
      "pitch": 59,
      "startBeat": 12.0,
      "lengthBeats": 2.0,
      "velocity": 0.8
    },
    {
      "pitch": 57,
      "startBeat": 14.0,
      "lengthBeats": 2.0,
      "velocity": 0.8
    },
    {
      "pitch": 55,
      "startBeat": 16.0,
      "lengthBeats": 2.0,
      "velocity": 0.8
    },
    {
      "pitch": 57,
      "startBeat": 18.0,
      "lengthBeats": 2.0,
      "velocity": 0.8
    },
    {
      "pitch": 59,
      "startBeat": 20.0,
      "lengthBeats": 2.0,
      "velocity": 0.8
    },
    {
      "pitch": 60,
      "startBeat": 22.0,
      "lengthBeats": 2.0,
      "velocity": 0.8
    },
    {
      "pitch": 62,
      "startBeat": 24.0,
      "lengthBeats": 6.0,
      "velocity": 0.8
    },
    {
      "pitch": 64,
      "startBeat": 32.0,
      "lengthBeats": 2.0,
      "velocity": 0.8
    },
    {
      "pitch": 65,
      "startBeat": 34.0,
      "lengthBeats": 4.0,
      "velocity": 0.8
    },
    {
      "pitch": 64,
      "startBeat": 38.0,
      "lengthBeats": 2.0,
      "velocity": 0.8
    },
    {
      "pitch": 62,
      "startBeat": 40.0,
      "lengthBeats": 4.0,
      "velocity": 0.8
    },
    {
      "pitch": 60,
      "startBeat": 44.0,
      "lengthBeats": 2.0,
      "velocity": 0.8
    },
    {
      "pitch": 59,
      "startBeat": 46.0,
      "lengthBeats": 2.0,
      "velocity": 0.8
    },
    {
      "pitch": 57,
      "startBeat": 48.0,
      "lengthBeats": 4.0,
      "velocity": 0.8
    },
    {
      "pitch": 55,
      "startBeat": 52.0,
      "lengthBeats": 2.0,
      "velocity": 0.8
    },
    {
      "pitch": 57,
      "startBeat": 54.0,
      "lengthBeats": 2.0,
      "velocity": 0.8
    },
    {
      "pitch": 57,
      "startBeat": 56.0,
      "lengthBeats": 6.0,
      "velocity": 0.8
    }
  ],
  "name": "Bittersweet Ballad - Melody",
  "version": 2
}