{
  "lengthBars": 8.0,
  "notes": [
    {
      "pitch": 52,
      "startBeat": 0.0,
      "lengthBeats": 1.0,
      "velocity": 0.8
    },
    {
      "pitch": 55,
      "startBeat": 1.0,
      "lengthBeats": 1.0,
      "velocity": 0.8
    },
    {
      "pitch": 59,
      "startBeat": 2.0,
      "lengthBeats": 1.0,
      "velocity": 0.8
    },
    {
      "pitch": 64,
      "startBeat": 3.0,
      "lengthBeats": 1.0,
      "velocity": 0.8
    },
    {
      "pitch": 67,
      "startBeat": 4.0,
      "lengthBeats": 1.0,
      "velocity": 0.8
    },
    {
      "pitch": 64,
      "startBeat": 5.0,
      "lengthBeats": 1.0,
      "velocity": 0.8
    },
    {
      "pitch": 59,
      "startBeat": 6.0,
      "lengthBeats": 1.0,
      "velocity": 0.8
    },
    {
      "pitch": 55,
      "startBeat": 7.0,
      "lengthBeats": 1.0,
      "velocity": 0.8
    },
    {
      "pitch": 57,
      "startBeat": 8.0,
      "lengthBeats": 1.0,
      "velocity": 0.8
    },
    {
      "pitch": 60,
      "startBeat": 9.0,
      "lengthBeats": 1.0,
      "velocity": 0.8
    },
    {
      "pitch": 64,
      "startBeat": 10.0,
      "lengthBeats": 1.0,
      "velocity": 0.8
    },
    {
      "pitch": 69,
      "startBeat": 11.0,
      "lengthBeats": 1.0,
      "velocity": 0.8
    },
    {
      "pitch": 67,
      "startBeat": 12.0,
      "lengthBeats": 1.0,
      "velocity": 0.8
    },
    {
      "pitch": 64,
      "startBeat": 13.0,
      "lengthBeats": 1.0,
      "velocity": 0.8
    },
    {
      "pitch": 60,
      "startBeat": 14.0,
      "lengthBeats": 1.0,
      "velocity": 0.8
    },
    {
      "pitch": 57,
      "startBeat": 15.0,
      "lengthBeats": 1.0,
      "velocity": 0.8
    },
    {
      "pitch": 52,
      "startBeat": 16.0,
      "lengthBeats": 1.0,
      "velocity": 0.8
    },
    {
      "pitch": 55,
      "startBeat": 17.0,
      "lengthBeats": 1.0,
      "velocity": 0.8
    },
    {
      "pitch": 59,
      "startBeat": 18.0,
      "lengthBeats": 1.0,
      "velocity": 0.8
    },
    {
      "pitch": 64,
      "startBeat": 19.0,
      "lengthBeats": 1.0,
      "velocity": 0.8
    },
    {
      "pitch": 67,
      "startBeat": 20.0,
      "lengthBeats": 1.0,
      "velocity": 0.8
    },
    {
      "pitch": 64,
      "startBeat": 21.0,
      "lengthBeats": 1.0,
      "velocity": 0.8
    },
    {
      "pitch": 59,
      "startBeat": 22.0,
      "lengthBeats": 1.0,
      "velocity": 0.8
    },
    {
      "pitch": 55,
      "startBeat": 23.0,
      "lengthBeats": 1.0,
      "velocity": 0.8
    },
    {
      "pitch": 57,
      "startBeat": 24.0,
      "lengthBeats": 1.0,
      "velocity": 0.8
    },
    {
      "pitch": 64,
      "startBeat": 25.0,
      "lengthBeats": 1.0,
      "velocity": 0.8
    },
    {
      "pitch": 59,
      "startBeat": 26.0,
      "lengthBeats": 1.0,
      "velocity": 0.8
    },
    {
      "pitch": 55,
      "startBeat": 27.0,
      "lengthBeats": 1.0,
      "velocity": 0.8
    },
    {
      "pitch": 52,
      "startBeat": 28.0,
      "lengthBeats": 4.0,
      "velocity": 0.8
    }
  ],
  "name": "Surf Guitar Twang",
  "version": 1
}