{
  "lengthBars": 8.0,
  "notes": [
    {
      "pitch": 50,
      "startBeat": 1.0,
      "lengthBeats": 0.5,
      "velocity": 0.8
    },
    {
      "pitch": 53,
      "startBeat": 1.0,
      "lengthBeats": 0.5,
      "velocity": 0.8
    },
    {
      "pitch": 57,
      "startBeat": 1.0,
      "lengthBeats": 0.5,
      "velocity": 0.8
    },
    {
      "pitch": 50,
      "startBeat": 2.0,
      "lengthBeats": 1.0,
      "velocity": 0.8
    },
    {
      "pitch": 53,
      "startBeat": 2.0,
      "lengthBeats": 1.0,
      "velocity": 0.8
    },
    {
      "pitch": 57,
      "startBeat": 2.0,
      "lengthBeats": 1.0,
      "velocity": 0.8
    },
    {
      "pitch": 55,
      "startBeat": 4.0,
      "lengthBeats": 0.5,
      "velocity": 0.8
    },
    {
      "pitch": 59,
      "startBeat": 4.0,
      "lengthBeats": 0.5,
      "velocity": 0.8
    },
    {
      "pitch": 50,
      "startBeat": 4.0,
      "lengthBeats": 0.5,
      "velocity": 0.8
    },
    {
      "pitch": 55,
      "startBeat": 5.0,
      "lengthBeats": 1.0,
      "velocity": 0.8
    },
    {
      "pitch": 59,
      "startBeat": 5.0,
      "lengthBeats": 1.0,
      "velocity": 0.8
    },
    {
      "pitch": 50,
      "startBeat": 5.0,
      "lengthBeats": 1.0,
      "velocity": 0.8
    },
    {
      "pitch": 48,
      "startBeat": 7.0,
      "lengthBeats": 0.5,
      "velocity": 0.8
    },
    {
      "pitch": 52,
      "startBeat": 7.0,
      "lengthBeats": 0.5,
      "velocity": 0.8
    },
    {
      "pitch": 55,
      "startBeat": 7.0,
      "lengthBeats": 0.5,
      "velocity": 0.8
    },
    {
      "pitch": 48,
      "startBeat": 8.0,
      "lengthBeats": 1.0,
      "velocity": 0.8
    },
    {
      "pitch": 52,
      "startBeat": 8.0,
      "lengthBeats": 1.0,
      "velocity": 0.8
    },
    {
      "pitch": 55,
      "startBeat": 8.0,
      "lengthBeats": 1.0,
      "velocity": 0.8
    },
    {
      "pitch": 57,
      "startBeat": 10.0,
      "lengthBeats": 0.5,
      "velocity": 0.8
    },
    {
      "pitch": 48,
      "startBeat": 10.0,
      "lengthBeats": 0.5,
      "velocity": 0.8
    },
    {
      "pitch": 52,
      "startBeat": 10.0,
      "lengthBeats": 0.5,
      "velocity": 0.8
    },
    {
      "pitch": 57,
      "startBeat": 11.0,
      "lengthBeats": 1.0,
      "velocity": 0.8
    },
    {
      "pitch": 48,
      "startBeat": 11.0,
      "lengthBeats": 1.0,
      "velocity": 0.8
    },
    {
      "pitch": 52,
      "startBeat": 11.0,
      "lengthBeats": 1.0,
      "velocity": 0.8
    },
    {
      "pitch": 50,
      "startBeat": 13.0,
      "lengthBeats": 0.5,
      "velocity": 0.8
    },
    {
      "pitch": 53,
      "startBeat": 13.0,
      "lengthBeats": 0.5,
      "velocity": 0.8
    },
    {
      "pitch": 57,
      "startBeat": 13.0,
      "lengthBeats": 0.5,
      "velocity": 0.8
    },
    {
      "pitch": 50,
      "startBeat": 14.0,
      "lengthBeats": 1.0,
      "velocity": 0.8
    },
    {
      "pitch": 53,
      "startBeat": 14.0,
      "lengthBeats": 1.0,
      "velocity": 0.8
    },
    {
      "pitch": 57,
      "startBeat": 14.0,
      "lengthBeats": 1.0,
      "velocity": 0.8
    },
    {
      "pitch": 55,
      "startBeat": 16.0,
      "lengthBeats": 0.5,
      "velocity": 0.8
    },
    {
      "pitch": 59,
      "startBeat": 16.0,
      "lengthBeats": 0.5,
      "velocity": 0.8
    },
    {
      "pitch": 50,
      "startBeat": 16.0,
      "lengthBeats": 0.5,
      "velocity": 0.8
    },
    {
      "pitch": 55,
      "startBeat": 17.0,
      "lengthBeats": 1.0,
      "velocity": 0.8
    },
    {
      "pitch": 59,
      "startBeat": 17.0,
      "lengthBeats": 1.0,
      "velocity": 0.8
    },
    {
      "pitch": 50,
      "startBeat": 17.0,
      "lengthBeats": 1.0,
      "velocity": 0.8
    },
    {
      "pitch": 48,
      "startBeat": 19.0,
      "lengthBeats": 0.5,
      "velocity": 0.8
    },
    {
      "pitch": 52,
      "startBeat": 19.0,
      "lengthBeats": 0.5,
      "velocity": 0.8
    },
    {
      "pitch": 55,
      "startBeat": 19.0,
      "lengthBeats": 0.5,
      "velocity": 0.8
    },
    {
      "pitch": 48,
      "startBeat": 20.0,
      "lengthBeats": 1.0,
      "velocity": 0.8
    },
    {
      "pitch": 52,
      "startBeat": 20.0,
      "lengthBeats": 1.0,
      "velocity": 0.8
    },
    {
      "pitch": 55,
      "startBeat": 20.0,
      "lengthBeats": 1.0,
      "velocity": 0.8
    },
    {
      "pitch": 57,
      "startBeat": 22.0,
      "lengthBeats": 1.0,
      "velocity": 0.8
    },
    {
      "pitch": 48,
      "startBeat": 22.0,
      "lengthBeats": 1.0,
      "velocity": 0.8
    },
    {
      "pitch": 52,
      "startBeat": 22.0,
      "lengthBeats": 1.0,
      "velocity": 0.8
    },
    {
      "pitch": 55,
      "startBeat": 24.0,
      "lengthBeats": 1.0,
      "velocity": 0.8
    },
    {
      "pitch": 59,
      "startBeat": 24.0,
      "lengthBeats": 1.0,
      "velocity": 0.8
    },
    {
      "pitch": 50,
      "startBeat": 24.0,
      "lengthBeats": 1.0,
      "velocity": 0.8
    }
  ],
  "name": "Bebop Jazz - Lead Lines",
  "version": 2
}