{
  "lengthBars": 8.0,
  "notes": [
    {
      "pitch": 36,
      "startBeat": 0.0,
      "lengthBeats": 0.5,
      "velocity": 0.8
    },
    {
      "pitch": 36,
      "startBeat": 0.5,
      "lengthBeats": 0.5,
      "velocity": 0.8
    },
    {
      "pitch": 36,
      "startBeat": 1.0,
      "lengthBeats": 0.5,
      "velocity": 0.8
    },
    {
      "pitch": 36,
      "startBeat": 1.5,
      "lengthBeats": 0.5,
      "velocity": 0.8
    },
    {
      "pitch": 36,
      "startBeat": 2.0,
      "lengthBeats": 0.5,
      "velocity": 0.8
    },
    {
      "pitch": 36,
      "startBeat": 2.5,
      "lengthBeats": 0.5,
      "velocity": 0.8
    },
    {
      "pitch": 36,
      "startBeat": 3.0,
      "lengthBeats": 0.5,
      "velocity": 0.8
    },
    {
      "pitch": 36,
      "startBeat": 3.5,
      "lengthBeats": 0.5,
      "velocity": 0.8
    },
    {
      "pitch": 36,
      "startBeat": 4.0,
      "lengthBeats": 0.5,
      "velocity": 0.8
    },
    {
      "pitch": 36,
      "startBeat": 4.5,
      "lengthBeats": 0.5,
      "velocity": 0.8
    },
    {
      "pitch": 36,
      "startBeat": 5.0,
      "lengthBeats": 0.5,
      "velocity": 0.8
    },
    {
      "pitch": 36,
      "startBeat": 5.5,
      "lengthBeats": 0.5,
      "velocity": 0.8
    },
    {
      "pitch": 36,
      "startBeat": 6.0,
      "lengthBeats": 0.5,
      "velocity": 0.8
    },
    {
      "pitch": 36,
      "startBeat": 6.5,
      "lengthBeats": 0.5,
      "velocity": 0.8
    },
    {
      "pitch": 36,
      "startBeat": 7.0,
      "lengthBeats": 0.5,
      "velocity": 0.8
    },
    {
      "pitch": 36,
      "startBeat": 7.5,
      "lengthBeats": 0.5,
      "velocity": 0.8
    },
    {
      "pitch": 36,
      "startBeat": 8.0,
      "lengthBeats": 0.5,
      "velocity": 0.8
    },
    {
      "pitch": 36,
      "startBeat": 8.5,
      "lengthBeats": 0.5,
      "velocity": 0.8
    },
    {
      "pitch": 36,
      "startBeat": 9.0,
      "lengthBeats": 0.5,
      "velocity": 0.8
    },
    {
      "pitch": 36,
      "startBeat": 9.5,
      "lengthBeats": 0.5,
      "velocity": 0.8
    },
    {
      "pitch": 36,
      "startBeat": 10.0,
      "lengthBeats": 0.5,
      "velocity": 0.8
    },
    {
      "pitch": 36,
      "startBeat": 10.5,
      "lengthBeats": 0.5,
      "velocity": 0.8
    },
    {
      "pitch": 36,
      "startBeat": 11.0,
      "lengthBeats": 0.5,
      "velocity": 0.8
    },
    {
      "pitch": 36,
      "startBeat": 11.5,
      "lengthBeats": 0.5,
      "velocity": 0.8
    },
    {
      "pitch": 36,
      "startBeat": 12.0,
      "lengthBeats": 0.5,
      "velocity": 0.8
    },
    {
      "pitch": 36,
      "startBeat": 12.5,
      "lengthBeats": 0.5,
      "velocity": 0.8
    },
    {
      "pitch": 36,
      "startBeat": 13.0,
      "lengthBeats": 0.5,
      "velocity": 0.8
    },
    {
      "pitch": 36,
      "startBeat": 13.5,
      "lengthBeats": 0.5,
      "velocity": 0.8
    },
    {
      "pitch": 36,
      "startBeat": 14.0,
      "lengthBeats": 0.5,
      "velocity": 0.8
    },
    {
      "pitch": 36,
      "startBeat": 14.5,
      "lengthBeats": 0.5,
      "velocity": 0.8
    },
    {
      "pitch": 36,
      "startBeat": 15.0,
      "lengthBeats": 0.5,
      "velocity": 0.8
    },
    {
      "pitch": 36,
      "startBeat": 15.5,
      "lengthBeats": 0.5,
      "velocity": 0.8
    },
    {
      "pitch": 36,
      "startBeat": 16.0,
      "lengthBeats": 0.5,
      "velocity": 0.8
    },
    {
      "pitch": 36,
      "startBeat": 16.5,
      "lengthBeats": 0.5,
      "velocity": 0.8
    },
    {
      "pitch": 36,
      "startBeat": 17.0,
      "lengthBeats": 0.5,
      "velocity": 0.8
    },
    {
      "pitch": 36,
      "startBeat": 17.5,
      "lengthBeats": 0.5,
      "velocity": 0.8
    },
    {
      "pitch": 36,
      "startBeat": 18.0,
      "lengthBeats": 0.5,
      "velocity": 0.8
    },
    {
      "pitch": 36,
      "startBeat": 18.5,
      "lengthBeats": 0.5,
      "velocity": 0.8
    },
    {
      "pitch": 36,
      "startBeat": 19.0,
      "lengthBeats": 0.5,
      "velocity": 0.8
    },
    {
      "pitch": 36,
      "startBeat": 19.5,
      "lengthBeats": 0.5,
      "velocity": 0.8
    },
    {
      "pitch": 36,
      "startBeat": 20.0,
      "lengthBeats": 0.5,
      "velocity": 0.8
    },
    {
      "pitch": 36,
      "startBeat": 20.5,
      "lengthBeats": 0.5,
      "velocity": 0.8
    },
    {
      "pitch": 36,
      "startBeat": 21.0,
      "lengthBeats": 0.5,
      "velocity": 0.8
    },
    {
      "pitch": 36,
      "startBeat": 21.5,
      "lengthBeats": 0.5,
      "velocity": 0.8
    },
    {
      "pitch": 36,
      "startBeat": 22.0,
      "lengthBeats": 0.5,
      "velocity": 0.8
    },
    {
      "pitch": 36,
      "startBeat": 22.5,
      "lengthBeats": 0.5,
      "velocity": 0.8
    },
    {
      "pitch": 36,
      "startBeat": 23.0,
      "lengthBeats": 0.5,
      "velocity": 0.8
    },
    {
      "pitch": 36,
      "startBeat": 23.5,
      "lengthBeats": 0.5,
      "velocity": 0.8
    },
    {
      "pitch": 36,
      "startBeat": 24.0,
      "lengthBeats": 0.5,
      "velocity": 0.8
    },
    {
      "pitch": 36,
      "startBeat": 24.5,
      "lengthBeats": 0.5,
      "velocity": 0.8
    },
    {
      "pitch": 36,
      "startBeat": 25.0,
      "lengthBeats": 0.5,
      "velocity": 0.8
    },
    {
      "pitch": 36,
      "startBeat": 25.5,
      "lengthBeats": 0.5,
      "velocity": 0.8
    },
    {
      "pitch": 36,
      "startBeat": 26.0,
      "lengthBeats": 0.5,
      "velocity": 0.8
    },
    {
      "pitch": 36,
      "startBeat": 26.5,
      "lengthBeats": 0.5,
      "velocity": 0.8
    },
    {
      "pitch": 36,
      "startBeat": 27.0,
      "lengthBeats": 0.5,
      "velocity": 0.8
    },
    {
      "pitch": 36,
      "startBeat": 27.5,
      "lengthBeats": 0.5,
      "velocity": 0.8
    },
    {
      "pitch": 36,
      "startBeat": 28.0,
      "lengthBeats": 0.5,
      "velocity": 0.8
    },
    {
      "pitch": 36,
      "startBeat": 28.5,
      "lengthBeats": 0.5,
      "velocity": 0.8
    },
    {
      "pitch": 36,
      "startBeat": 29.0,
      "lengthBeats": 0.5,
      "velocity": 0.8
    },
    {
      "pitch": 36,
      "startBeat": 29.5,
      "lengthBeats": 0.5,
      "velocity": 0.8
    },
    {
      "pitch": 36,
      "startBeat": 30.0,
      "lengthBeats": 0.5,
      "velocity": 0.8
    },
    {
      "pitch": 36,
      "startBeat": 30.5,
      "lengthBeats": 0.5,
      "velocity": 0.8
    },
    {
      "pitch": 36,
      "startBeat": 31.0,
      "lengthBeats": 0.5,
      "velocity": 0.8
    },
    {
      "pitch": 36,
      "startBeat": 31.5,
      "lengthBeats": 0.5,
      "velocity": 0.8
    }
  ],
  "name": "Blast Beat Kick",
  "version": 1
}