{
  "lengthBars": 8.0,
  "notes": [
    {
      "pitch": 40,
      "startBeat": 0.0,
      "lengthBeats": 2.0,
      "velocity": 0.8
    },
    {
      "pitch": 43,
      "startBeat": 0.0,
      "lengthBeats": 2.0,
      "velocity": 0.8
    },
    {
      "pitch": 47,
      "startBeat": 0.0,
      "lengthBeats": 2.0,
      "velocity": 0.8
    },
    {
      "pitch": 33,
      "startBeat": 2.0,
      "lengthBeats": 2.0,
      "velocity": 0.8
    },
    {
      "pitch": 36,
      "startBeat": 2.0,
      "lengthBeats": 2.0,
      "velocity": 0.8
    },
    {
      "pitch": 40,
      "startBeat": 2.0,
      "lengthBeats": 2.0,
      "velocity": 0.8
    },
    {
      "pitch": 40,
      "startBeat": 4.0,
      "lengthBeats": 2.0,
      "velocity": 0.8
    },
    {
      "pitch": 43,
      "startBeat": 4.0,
      "lengthBeats": 2.0,
      "velocity": 0.8
    },
    {
      "pitch": 47,
      "startBeat": 4.0,
      "lengthBeats": 2.0,
      "velocity": 0.8
    },
    {
      "pitch": 33,
      "startBeat": 6.0,
      "lengthBeats": 2.0,
      "velocity": 0.8
    },
    {
      "pitch": 36,
      "startBeat": 6.0,
      "lengthBeats": 2.0,
      "velocity": 0.8
    },
    {
      "pitch": 40,
      "startBeat": 6.0,
      "lengthBeats": 2.0,
      "velocity": 0.8
    },
    {
      "pitch": 38,
      "startBeat": 8.0,
      "lengthBeats": 2.0,
      "velocity": 0.8
    },
    {
      "pitch": 41,
      "startBeat": 8.0,
      "lengthBeats": 2.0,
      "velocity": 0.8
    },
    {
      "pitch": 45,
      "startBeat": 8.0,
      "lengthBeats": 2.0,
      "velocity": 0.8
    },
    {
      "pitch": 31,
      "startBeat": 10.0,
      "lengthBeats": 2.0,
      "velocity": 0.8
    },
    {
      "pitch": 35,
      "startBeat": 10.0,
      "lengthBeats": 2.0,
      "velocity": 0.8
    },
    {
      "pitch": 38,
      "startBeat": 10.0,
      "lengthBeats": 2.0,
      "velocity": 0.8
    },
    {
      "pitch": 40,
      "startBeat": 12.0,
      "lengthBeats": 4.0,
      "velocity": 0.8
    },
    {
      "pitch": 43,
      "startBeat": 12.0,
      "lengthBeats": 4.0,
      "velocity": 0.8
    },
    {
      "pitch": 47,
      "startBeat": 12.0,
      "lengthBeats": 4.0,
      "velocity": 0.8
    },
    {
      "pitch": 40,
      "startBeat": 16.0,
      "lengthBeats": 2.0,
      "velocity": 0.8
    },
    {
      "pitch": 43,
      "startBeat": 16.0,
      "lengthBeats": 2.0,
      "velocity": 0.8
    },
    {
      "pitch": 47,
      "startBeat": 16.0,
      "lengthBeats": 2.0,
      "velocity": 0.8
    },
    {
      "pitch": 33,
      "startBeat": 18.0,
      "lengthBeats": 2.0,
      "velocity": 0.8
    },
    {
      "pitch": 36,
      "startBeat": 18.0,
      "lengthBeats": 2.0,
      "velocity": 0.8
    },
    {
      "pitch": 40,
      "startBeat": 18.0,
      "lengthBeats": 2.0,
      "velocity": 0.8
    },
    {
      "pitch": 40,
      "startBeat": 20.0,
      "lengthBeats": 2.0,
      "velocity": 0.8
    },
    {
      "pitch": 43,
      "startBeat": 20.0,
      "lengthBeats": 2.0,
      "velocity": 0.8
    },
    {
      "pitch": 47,
      "startBeat": 20.0,
      "lengthBeats": 2.0,
      "velocity": 0.8
    },
    {
      "pitch": 33,
      "startBeat": 22.0,
      "lengthBeats": 2.0,
      "velocity": 0.8
    },
    {
      "pitch": 36,
      "startBeat": 22.0,
      "lengthBeats": 2.0,
      "velocity": 0.8
    },
    {
      "pitch": 40,
      "startBeat": 22.0,
      "lengthBeats": 2.0,
      "velocity": 0.8
    },
    {
      "pitch": 38,
      "startBeat": 24.0,
      "lengthBeats": 2.0,
      "velocity": 0.8
    },
    {
      "pitch": 41,
      "startBeat": 24.0,
      "lengthBeats": 2.0,
      "velocity": 0.8
    },
    {
      "pitch": 45,
      "startBeat": 24.0,
      "lengthBeats": 2.0,
      "velocity": 0.8
    },
    {
      "pitch": 40,
      "startBeat": 26.0,
      "lengthBeats": 2.0,
      "velocity": 0.8
    },
    {
      "pitch": 43,
      "startBeat": 26.0,
      "lengthBeats": 2.0,
      "velocity": 0.8
    },
    {
      "pitch": 47,
      "startBeat": 26.0,
      "lengthBeats": 2.0,
      "velocity": 0.8
    },
    {
      "pitch": 40,
      "startBeat": 28.0,
      "lengthBeats": 4.0,
      "velocity": 0.8
    },
    {
      "pitch": 43,
      "startBeat": 28.0,
      "lengthBeats": 4.0,
      "velocity": 0.8
    },
    {
      "pitch": 47,
      "startBeat": 28.0,
      "lengthBeats": 4.0,
      "velocity": 0.8
    }
  ],
  "name": "Afrobeat Groove - Chords & Riffs",
  "version": 2
}