{
  "lengthBars": 8.0,
  "notes": [
    {
      "pitch": 57,
      "startBeat": 1.0,
      "lengthBeats": 1.0,
      "velocity": 0.8
    },
    {
      "pitch": 48,
      "startBeat": 1.0,
      "lengthBeats": 1.0,
      "velocity": 0.8
    },
    {
      "pitch": 52,
      "startBeat": 1.0,
      "lengthBeats": 1.0,
      "velocity": 0.8
    },
    {
      "pitch": 57,
      "startBeat": 3.0,
      "lengthBeats": 1.0,
      "velocity": 0.8
    },
    {
      "pitch": 48,
      "startBeat": 3.0,
      "lengthBeats": 1.0,
      "velocity": 0.8
    },
    {
      "pitch": 52,
      "startBeat": 3.0,
      "lengthBeats": 1.0,
      "velocity": 0.8
    },
    {
      "pitch": 50,
      "startBeat": 5.0,
      "lengthBeats": 1.0,
      "velocity": 0.8
    },
    {
      "pitch": 53,
      "startBeat": 5.0,
      "lengthBeats": 1.0,
      "velocity": 0.8
    },
    {
      "pitch": 57,
      "startBeat": 5.0,
      "lengthBeats": 1.0,
      "velocity": 0.8
    },
    {
      "pitch": 50,
      "startBeat": 7.0,
      "lengthBeats": 1.0,
      "velocity": 0.8
    },
    {
      "pitch": 53,
      "startBeat": 7.0,
      "lengthBeats": 1.0,
      "velocity": 0.8
    },
    {
      "pitch": 57,
      "startBeat": 7.0,
      "lengthBeats": 1.0,
      "velocity": 0.8
    },
    {
      "pitch": 55,
      "startBeat": 9.0,
      "lengthBeats": 1.0,
      "velocity": 0.8
    },
    {
      "pitch": 59,
      "startBeat": 9.0,
      "lengthBeats": 1.0,
      "velocity": 0.8
    },
    {
      "pitch": 50,
      "startBeat": 9.0,
      "lengthBeats": 1.0,
      "velocity": 0.8
    },
    {
      "pitch": 55,
      "startBeat": 11.0,
      "lengthBeats": 1.0,
      "velocity": 0.8
    },
    {
      "pitch": 59,
      "startBeat": 11.0,
      "lengthBeats": 1.0,
      "velocity": 0.8
    },
    {
      "pitch": 50,
      "startBeat": 11.0,
      "lengthBeats": 1.0,
      "velocity": 0.8
    },
    {
      "pitch": 48,
      "startBeat": 13.0,
      "lengthBeats": 1.0,
      "velocity": 0.8
    },
    {
      "pitch": 52,
      "startBeat": 13.0,
      "lengthBeats": 1.0,
      "velocity": 0.8
    },
    {
      "pitch": 55,
      "startBeat": 13.0,
      "lengthBeats": 1.0,
      "velocity": 0.8
    },
    {
      "pitch": 48,
      "startBeat": 15.0,
      "lengthBeats": 1.0,
      "velocity": 0.8
    },
    {
      "pitch": 52,
      "startBeat": 15.0,
      "lengthBeats": 1.0,
      "velocity": 0.8
    },
    {
      "pitch": 55,
      "startBeat": 15.0,
      "lengthBeats": 1.0,
      "velocity": 0.8
    },
    {
      "pitch": 57,
      "startBeat": 17.0,
      "lengthBeats": 1.0,
      "velocity": 0.8
    },
    {
      "pitch": 48,
      "startBeat": 17.0,
      "lengthBeats": 1.0,
      "velocity": 0.8
    },
    {
      "pitch": 52,
      "startBeat": 17.0,
      "lengthBeats": 1.0,
      "velocity": 0.8
    },
    {
      "pitch": 57,
      "startBeat": 19.0,
      "lengthBeats": 1.0,
      "velocity": 0.8
    },
    {
      "pitch": 48,
      "startBeat": 19.0,
      "lengthBeats": 1.0,
      "velocity": 0.8
    },
    {
      "pitch": 52,
      "startBeat": 19.0,
      "lengthBeats": 1.0,
      "velocity": 0.8
    },
    {
      "pitch": 50,
      "startBeat": 21.0,
      "lengthBeats": 1.0,
      "velocity": 0.8
    },
    {
      "pitch": 53,
      "startBeat": 21.0,
      "lengthBeats": 1.0,
      "velocity": 0.8
    },
    {
      "pitch": 57,
      "startBeat": 21.0,
      "lengthBeats": 1.0,
      "velocity": 0.8
    },
    {
      "pitch": 50,
      "startBeat": 23.0,
      "lengthBeats": 1.0,
      "velocity": 0.8
    },
    {
      "pitch": 53,
      "startBeat": 23.0,
      "lengthBeats": 1.0,
      "velocity": 0.8
    },
    {
      "pitch": 57,
      "startBeat": 23.0,
      "lengthBeats": 1.0,
      "velocity": 0.8
    },
    {
      "pitch": 55,
      "startBeat": 25.0,
      "lengthBeats": 1.0,
      "velocity": 0.8
    },
    {
      "pitch": 59,
      "startBeat": 25.0,
      "lengthBeats": 1.0,
      "velocity": 0.8
    },
    {
      "pitch": 50,
      "startBeat": 25.0,
      "lengthBeats": 1.0,
      "velocity": 0.8
    },
    {
      "pitch": 48,
      "startBeat": 27.0,
      "lengthBeats": 1.0,
      "velocity": 0.8
    },
    {
      "pitch": 52,
      "startBeat": 27.0,
      "lengthBeats": 1.0,
      "velocity": 0.8
    },
    {
      "pitch": 55,
      "startBeat": 27.0,
      "lengthBeats": 1.0,
      "velocity": 0.8
    },
    {
      "pitch": 57,
      "startBeat": 29.0,
      "lengthBeats": 1.0,
      "velocity": 0.8
    },
    {
      "pitch": 48,
      "startBeat": 29.0,
      "lengthBeats": 1.0,
      "velocity": 0.8
    },
    {
      "pitch": 52,
      "startBeat": 29.0,
      "lengthBeats": 1.0,
      "velocity": 0.8
    },
    {
      "pitch": 57,
      "startBeat": 31.0,
      "lengthBeats": 1.0,
      "velocity": 0.8
    },
    {
      "pitch": 48,
      "startBeat": 31.0,
      "lengthBeats": 1.0,
      "velocity": 0.8
    },
    {
      "pitch": 52,
      "startBeat": 31.0,
      "lengthBeats": 1.0,
      "velocity": 0.8
    }
  ],
  "name": "Disco Rhythm Guitar",
  "version": 1
}